<svg xmlns="http://www.w3.org/2000/svg" viewBox="0 0 256 257" fill="none">
  <path d="M255.2 51.9L134.9 255.6a2.6 2.6 0 0 1-4.4 0L.8 51.9a2.6 2.6 0 0 1 2.9-3.8l126.2 22.3a2.6 2.6 0 0 0 .9 0l126.2-22.3a2.6 2.6 0 0 1 2.9 3.8Z" fill="#646CFF"/>
  <path d="M185.2 0 91.1 18.2a1.3 1.3 0 0 0-1 1.2l-.5 93.6a1.3 1.3 0 0 0 1.8 1.2l26.2-9.7a1.3 1.3 0 0 1 1.8 1.2l-.4 54.1a1.3 1.3 0 0 0 1.8 1.2l16.2-6.4a1.3 1.3 0 0 1 1.8 1.2l-.7 41.2a1.3 1.3 0 0 0 2 1.1l3.4-2 57.4-40.5a1.3 1.3 0 0 0 .5-1l1.4-96.6a1.3 1.3 0 0 0-1.6-1.3l-27.9 6.2a1.3 1.3 0 0 1-1.6-1.3l.5-52.2a1.3 1.3 0 0 0-1.6-1.3Z" fill="#C7CCFF"/>
</svg>
